<svg xmlns="http://www.w3.org/2000/svg" viewBox="0 0 348 348" fill="none"><path d="M5.079 5.776h336.913v337.67H5.08z" stroke-width="2" stroke="#000"/><path d="M282.734 40.554c0-8.376 6.966-15.165 15.56-15.165 4.126 0 8.084 1.597 11.001 4.441 2.918 2.844 4.558 6.702 4.558 10.724 0 8.376-6.966 15.165-15.56 15.165-8.593 0-15.559-6.79-15.559-15.165z" stroke-width="2" stroke="#000"/><path d="M297.914 219h-248v38h248z" stroke="#000" stroke-width="2" fill="#000"/><path d="M29.651 227.923c-5.566 0-10.079 4.512-10.079 10.079a10.079 10.079 0 0010.081 10.077c5.565 0 10.078-4.512 10.078-10.078 0-5.567-4.513-10.08-10.079-10.08z" fill="#fff"/><path d="M29.651 227.923c-5.566 0-10.079 4.512-10.079 10.079a10.079 10.079 0 0010.081 10.077c5.565 0 10.078-4.512 10.078-10.078 0-5.567-4.513-10.08-10.079-10.08z" stroke="#000" stroke-width="2" stroke-linejoin="round"/><path d="M33.354 233.949l-7.401 4.047 7.401 4.047z" fill="#000"/><path d="M33.354 233.949l-7.401 4.047 7.401 4.047z" stroke="#000" stroke-width="2" stroke-linejoin="round"/><path d="M317.42 227.923c5.566 0 10.079 4.512 10.079 10.079a10.079 10.079 0 01-10.081 10.077c-5.565 0-10.078-4.512-10.078-10.078 0-5.567 4.513-10.08 10.079-10.08z" fill="#fff"/><path d="M317.42 227.923c5.566 0 10.079 4.512 10.079 10.079a10.079 10.079 0 01-10.081 10.077c-5.565 0-10.078-4.512-10.078-10.078 0-5.567 4.513-10.08 10.079-10.08z" stroke="#000" stroke-width="2" stroke-linejoin="round"/><path d="M313.717 233.949l7.401 4.047-7.401 4.047z" fill="#000"/><path d="M313.717 233.949l7.401 4.047-7.401 4.047z" stroke="#000" stroke-width="2" stroke-linejoin="round"/><path d="M127.241 250.194v-24.388h5.17v1.94h-2.826v20.508h2.825v1.94zm19.427-5.299v-16.836h-6.289v-2.253h15.13v2.253h-6.315v16.836zm11.497 0v-19.089h13.803v2.253h-11.276v5.846h10.56v2.24h-10.56v6.497h11.718v2.253zm15.821 0l7.383-9.948-6.51-9.141h3.007l3.464 4.896q1.08 1.523 1.536 2.344.638-1.042 1.51-2.175l3.842-5.065h2.747l-6.706 8.997 7.227 10.092h-3.125l-4.805-6.81q-.404-.586-.833-1.276-.638 1.041-.912 1.432l-4.791 6.654zm24.609 0v-16.836h-6.289v-2.253h15.13v2.253h-6.315v16.836zm21.992 5.299h-5.169v-1.94h2.826v-20.508h-2.826v-1.94h5.17z" fill="#fff"/><path d="M147.914 282.268h-88v38h88z" stroke="#000" stroke-width="2"/><path d="M81.114 310.656l7.331-19.089h2.722l7.812 19.089h-2.878l-2.226-5.781h-7.982l-2.096 5.781zm5.508-7.839h6.472l-1.993-5.286q-.911-2.409-1.354-3.958-.364 1.836-1.028 3.646zm23.073 7.839v-1.745q-1.315 2.057-3.867 2.057-1.654 0-3.047-.911-1.38-.911-2.148-2.539-.755-1.64-.755-3.763 0-2.07.69-3.75.69-1.693 2.07-2.591 1.38-.899 3.086-.899 1.25 0 2.226.534.977.521 1.589 1.367v-6.849h2.33v19.089zm-7.409-6.901q0 2.656 1.12 3.971t2.643 1.315q1.537 0 2.605-1.25 1.08-1.263 1.08-3.84 0-2.84-1.093-4.167-1.094-1.329-2.696-1.329-1.562 0-2.617 1.277-1.042 1.276-1.042 4.023zm22.253 6.901v-1.745q-1.315 2.057-3.867 2.057-1.654 0-3.047-.911-1.38-.911-2.149-2.539-.755-1.64-.755-3.763 0-2.07.69-3.75.69-1.693 2.07-2.591 1.38-.899 3.087-.899 1.25 0 2.226.534.977.521 1.589 1.367v-6.849h2.33v19.089zm-7.409-6.901q0 2.656 1.12 3.971t2.643 1.315q1.537 0 2.604-1.25 1.081-1.263 1.081-3.84 0-2.84-1.094-4.167-1.093-1.329-2.695-1.329-1.563 0-2.617 1.277-1.042 1.276-1.042 4.023z" fill="#000"/><path d="M287.914 282.268h-88v38h88z" stroke="#000" stroke-width="2"/><path d="M210.21 310.656v-19.089h8.463q2.552 0 3.88.521 1.328.508 2.123 1.81.794 1.302.794 2.878 0 2.031-1.315 3.424-1.315 1.394-4.063 1.771 1.003.482 1.524.95 1.107 1.016 2.096 2.54l3.32 5.195h-3.177l-2.526-3.971q-1.106-1.72-1.823-2.63-.716-.912-1.289-1.277-.56-.364-1.146-.507-.43-.092-1.406-.092h-2.93v8.477zm2.526-10.664h5.43q1.731 0 2.708-.352.976-.364 1.484-1.145.508-.795.508-1.72 0-1.353-.99-2.226-.976-.872-3.099-.872h-6.041zm25.872 6.211l2.422.3q-.573 2.122-2.123 3.294-1.55 1.172-3.958 1.172-3.034 0-4.818-1.862-1.77-1.875-1.77-5.248 0-3.49 1.796-5.417 1.797-1.927 4.662-1.927 2.773 0 4.531 1.888 1.758 1.888 1.758 5.313 0 .208-.013.625h-10.313q.13 2.279 1.29 3.49 1.158 1.21 2.89 1.21 1.29 0 2.2-.677.912-.677 1.446-2.161zm-7.695-3.79h7.721q-.156-1.744-.885-2.616-1.12-1.355-2.904-1.355-1.615 0-2.721 1.081-1.094 1.08-1.211 2.89zm12.135 4.115l2.318-.364q.195 1.393 1.08 2.135.899.742 2.5.742 1.615 0 2.396-.65.782-.665.782-1.55 0-.794-.69-1.25-.482-.313-2.396-.794-2.579-.651-3.581-1.12-.99-.482-1.51-1.315-.508-.847-.508-1.862 0-.925.416-1.706.43-.794 1.16-1.315.546-.404 1.484-.677.95-.287 2.03-.287 1.628 0 2.852.47 1.237.468 1.823 1.275.586.794.808 2.136l-2.292.312q-.156-1.068-.912-1.667-.742-.599-2.109-.599-1.615 0-2.305.534-.69.534-.69 1.25 0 .456.287.82.286.378.898.626.352.13 2.07.599 2.487.664 3.464 1.093.99.417 1.55 1.224.56.808.56 2.006 0 1.171-.69 2.213-.678 1.029-1.967 1.602-1.289.56-2.917.56-2.695 0-4.114-1.12-1.406-1.12-1.797-3.32zm23.737-.325l2.422.3q-.573 2.122-2.123 3.294-1.549 1.172-3.958 1.172-3.034 0-4.818-1.862-1.77-1.875-1.77-5.248 0-3.49 1.796-5.417 1.797-1.927 4.662-1.927 2.773 0 4.531 1.888 1.758 1.888 1.758 5.313 0 .208-.013.625H258.96q.13 2.279 1.289 3.49 1.158 1.21 2.89 1.21 1.29 0 2.2-.677.912-.677 1.446-2.161zm-7.695-3.79h7.721q-.156-1.744-.885-2.616-1.12-1.355-2.904-1.355-1.615 0-2.721 1.081-1.094 1.08-1.211 2.89zm18.19 6.147l.338 2.07q-.99.208-1.77.208-1.277 0-1.98-.403-.703-.404-.99-1.055-.286-.664-.286-2.773v-7.956h-1.718v-1.823h1.718v-3.425l2.331-1.406v4.83h2.357v1.824h-2.357v8.086q0 1.002.117 1.289.13.286.404.456.286.169.807.169.39 0 1.029-.091z" fill="#000"/><path d="M236 29H68v168h168zm-84 0v168m-84-84h168" stroke="#000" stroke-width="2"/><path d="M99.438 98.582C90.914 94.704 86 86.825 86 77.034c0-3.482.604-4.838 3.4-7.634 3.11-3.11 6.56-4.49 6.627-2.65.015.412 1.291 2.275 2.837 4.138l2.81 3.388 4.5-2.638C108.65 70.187 110.953 69 111.29 69c.338 0 2.058 2.138 3.824 4.75s3.319 4.894 3.451 5.07c.133.176 2.067-.612 4.298-1.75 5.133-2.619 5.562-2.596 7.521.394 1.504 2.294 1.475 2.839-.421 7.907-1.33 3.555-3.548 6.836-6.395 9.46-7.062 6.51-15.264 7.784-24.13 3.75zm17.171-30.115l-3.68-5.543-5.035 2.788-5.035 2.788-3.373-3.98-3.372-3.98-3.057 2.26C90.16 64.94 90 64.959 90 63.14c0-2.526 7.919-13.22 12.16-16.422C106.277 43.61 112.44 41 115.662 41c3.957 0 9.773 3.577 12.712 7.818 3.164 4.566 5.597 12.77 5.614 18.932.013 4.619-.454 5.043-3.005 2.734-1.507-1.363-2.127-1.263-6.184 1.005l-4.51 2.52zM182 98.028c-5.673-3.054-9.92-7.623-12.8-13.768-2.23-4.757-2.7-7.153-2.696-13.76.004-6.955.384-8.686 2.91-13.25 1.597-2.888 3.282-5.25 3.745-5.25.463 0 .841 2.414.841 5.365 0 3.914.56 6.078 2.073 8 2.978 3.787 3.926 3.277 3.936-2.115.011-5.558 3.738-12.775 9.395-18.196L193 41.608l.006 4.946c.008 6.9 1.628 12.009 4.996 15.75 2.721 3.022 2.973 3.103 4.615 1.483 1.483-1.462 1.586-2.376.7-6.25-.941-4.107-.866-4.537.788-4.537 3.843 0 13.451 11.98 16.27 20.285 3.109 9.156 1.619 15.88-4.76 21.48-3.322 2.917-5.615 4.043-5.615 2.76 0-.263.898-1.95 1.996-3.75 2.294-3.762 2.768-14.005.843-18.228-1.636-3.593-4.199-3.206-5.667.855-1.974 5.459-3.298 5.943-7.277 2.663-1.913-1.577-4.543-4.937-5.844-7.466-1.301-2.53-2.717-4.599-3.147-4.599-1.4 0-2.066 8.39-1.029 12.973.557 2.46.855 4.63.662 4.824-.364.363-4.769-1.927-7.739-4.024-2.305-1.628-3.045-.609-2.98 4.105.065 4.722 2.189 9.196 5.662 11.928 4.569 3.594 2.365 4.368-3.48 1.222zM85.37 183.56c-4.2-1.828-4.849-3.18-2.93-6.108C85.896 172.176 112.249 145 113.908 145c2.732 0 16.248 14.429 15.455 16.498-1.21 3.15-16.728 15.406-24.652 19.469-8.53 4.373-13.667 5.062-19.341 2.593zm37.857-32.831L115 142.457l8.271-8.228c5.269-5.242 9.06-8.229 10.444-8.229 2.196 0 5.286 3.356 5.286 5.74 0 .713-3.15 4.267-7 7.899-3.85 3.632-7 7.132-7 7.78 0 .646 1.8 2.933 4 5.081 3.676 3.59 5.121 6.5 3.228 6.5-.425 0-4.475-3.722-9-8.271zm80.746 30.398c-1.635-1.635-2.973-3.502-2.973-4.147 0-1.566 13-14.98 14.518-14.98 1.819 0 6.482 4.695 6.482 6.526 0 1.716-10.24 12.997-13.27 14.618-1.39.744-2.442.298-4.757-2.017zm-8.765-9.694C192.594 169.603 183 155.71 183 153.758c0-.733 2.148-3.45 4.774-6.035l4.774-4.703 8.205 5.494c8.838 5.916 11.77 9.262 10.8 12.32-.776 2.444-10.982 12.166-12.77 12.166-.736 0-2.345-.705-3.575-1.567zM178 150.503c0-1.743 6.43-9.127 9.271-10.648 1.367-.731 2.27-.713 3.044.06.801.801-.376 2.597-4.323 6.593-5.442 5.51-7.992 6.785-7.992 3.995zm-8.84-5.104c-3.774-2.643-4.456-5.942-2.256-10.915 3.303-7.466 12.83-10.18 17.023-4.85 3.49 4.438 2.756 8.482-2.405 13.239-4.913 4.528-8.467 5.255-12.363 2.526zM165 127.5c0-.825.675-1.5 1.5-1.5s1.5.675 1.5 1.5-.675 1.5-1.5 1.5-1.5-.675-1.5-1.5z" fill="#000"/></svg>

